<?xml version="1.0" encoding="UTF-8" standalone="no"?>
<!-- Created with Inkscape (http://www.inkscape.org/) -->

<svg
   xmlns:dc="http://purl.org/dc/elements/1.1/"
   xmlns:cc="http://creativecommons.org/ns#"
   xmlns:rdf="http://www.w3.org/1999/02/22-rdf-syntax-ns#"
   xmlns:svg="http://www.w3.org/2000/svg"
   xmlns="http://www.w3.org/2000/svg"
   xmlns:sodipodi="http://sodipodi.sourceforge.net/DTD/sodipodi-0.dtd"
   xmlns:inkscape="http://www.inkscape.org/namespaces/inkscape"
   width="297mm"
   height="210mm"
   viewBox="0 0 297 210"
   version="1.1"
   id="svg8"
   inkscape:version="0.92.1 r15371"
   sodipodi:docname="logo-katch.svg">
  <defs
     id="defs2">
    <inkscape:perspective
       sodipodi:type="inkscape:persp3d"
       inkscape:vp_x="3.4939738 : 151.06858 : 1"
       inkscape:vp_y="0 : 999.99995 : 0"
       inkscape:vp_z="213.49398 : 151.06858 : 1"
       inkscape:persp3d-origin="108.49398 : 101.56858 : 1"
       id="perspective3727" />
  </defs>
  <sodipodi:namedview
     id="base"
     pagecolor="#ffffff"
     bordercolor="#666666"
     borderopacity="1.0"
     inkscape:pageopacity="0.0"
     inkscape:pageshadow="2"
     inkscape:zoom="1"
     inkscape:cx="704.28571"
     inkscape:cy="339.14286"
     inkscape:document-units="mm"
     inkscape:current-layer="text3682"
     showgrid="false"
     inkscape:window-width="1920"
     inkscape:window-height="1017"
     inkscape:window-x="2552"
     inkscape:window-y="-8"
     inkscape:window-maximized="1" />
  <metadata
     id="metadata5">
    <rdf:RDF>
      <cc:Work
         rdf:about="">
        <dc:format>image/svg+xml</dc:format>
        <dc:type
           rdf:resource="http://purl.org/dc/dcmitype/StillImage" />
        <dc:title></dc:title>
      </cc:Work>
    </rdf:RDF>
  </metadata>
  <g
     inkscape:label="Livello 1"
     inkscape:groupmode="layer"
     id="layer1"
     transform="translate(0,-87)">
    <g
       aria-label="katch"
       style="font-style:normal;font-weight:normal;font-size:37.8434906px;line-height:1.25;font-family:sans-serif;letter-spacing:0px;word-spacing:0px;fill:#000000;fill-opacity:1;stroke:none;stroke-width:0.94608724"
       id="text3682">
      <g
         id="g3854"
         transform="matrix(1.5,0,0,1.5,-6.277098,-25.755035)">
        <path
           inkscape:connector-curvature="0"
           id="path3684"
           style="font-style:italic;font-variant:normal;font-weight:normal;font-stretch:normal;font-family:'Trebuchet MS';-inkscape-font-specification:'Trebuchet MS Italic';fill:#44aa00;stroke-width:0.94608724"
           d="m 62.677545,140.67364 -1.38587,1.20109 -1.293479,7.53913 h -3.51087 l 4.675001,-27.90218 h 3.418479 l -2.531522,16.22392 q 6.947828,-6.50435 8.555438,-8.7587 l 2.365218,2.125 q -2.975001,3.30761 -7.557611,7.65 l 7.465219,10.66196 h -4.139131 z" />
        <path
           inkscape:connector-curvature="0"
           id="path3686"
           style="font-style:italic;font-variant:normal;font-weight:normal;font-stretch:normal;font-family:'Trebuchet MS';-inkscape-font-specification:'Trebuchet MS Italic';fill:#112b00;stroke-width:0.94608724"
           d="m 93.037337,130.86168 -2.420653,11.51196 q -0.147826,0.70218 -0.147826,1.70001 0,2.8826 0.905435,5.34021 h -3.584784 q -0.295652,-0.5913 -0.628261,-1.99565 -0.868479,1.05326 -2.586958,1.71848 -1.718478,0.64674 -3.640218,0.64674 -2.919566,0 -4.564132,-1.71848 -1.626088,-1.73696 -1.626088,-4.97065 0,-5.43261 3.196741,-9.62718 3.215218,-4.21305 8.259785,-4.21305 4.767393,0 6.836959,1.60761 z m -3.880436,2.05109 q -0.498914,-0.79456 -3.363045,-0.79456 -2.919566,0 -5.136958,3.10435 -2.217392,3.10434 -2.217392,7.76087 0,3.93587 3.51087,3.93587 1.829349,0 3.436958,-1.88479 1.607609,-1.90326 2.23587,-4.85978 z" />
        <path
           inkscape:connector-curvature="0"
           id="path3688"
           style="font-style:italic;font-variant:normal;font-weight:normal;font-stretch:normal;font-family:'Trebuchet MS';-inkscape-font-specification:'Trebuchet MS Italic';fill:#112b00;stroke-width:0.94608724"
           d="m 99.41234,132.39538 h -2.291306 l 0.591305,-2.77174 h 2.291301 l 0.81305,-4.13913 4.00978,-1.51522 -1.31196,5.65435 h 5.43262 l -0.59131,2.77174 h -5.43261 l -2.06957,9.83044 q -0.24021,1.14565 -0.24021,1.77391 0,2.82718 2.80869,2.82718 1.3674,0 2.93805,-0.6837 l -0.12935,3.08587 q -1.51522,0.55435 -4.89674,0.55435 -2.106523,0 -3.289132,-1.29348 -1.164131,-1.31196 -1.164131,-3.58478 0,-0.51739 0.166304,-1.275 z" />
        <path
           inkscape:connector-curvature="0"
           id="path3690"
           style="font-style:italic;font-variant:normal;font-weight:normal;font-stretch:normal;font-family:'Trebuchet MS';-inkscape-font-specification:'Trebuchet MS Italic';fill:#112b00;stroke-width:0.94608724"
           d="m 126.51996,130.2519 -0.64674,3.01196 q -1.33044,-1.05326 -3.56631,-1.05326 -3.4,0 -5.50652,2.69782 -2.08804,2.67935 -2.08804,6.59675 0,2.40217 1.34891,3.84348 1.36739,1.42282 3.10435,1.42282 2.67935,0 5.13696,-1.64456 l -0.38805,3.58478 q -2.42065,1.07174 -5.30326,1.07174 -3.6587,0 -5.61739,-2.08804 -1.9587,-2.10653 -1.9587,-5.58044 0,-5.65435 3.10435,-9.25761 3.10435,-3.60327 7.9087,-3.60327 2.84565,0 4.47174,0.99783 z" />
        <path
           inkscape:connector-curvature="0"
           id="path3692"
           style="font-style:italic;font-variant:normal;font-weight:normal;font-stretch:normal;font-family:'Trebuchet MS';-inkscape-font-specification:'Trebuchet MS Italic';fill:#112b00;stroke-width:0.94608724"
           d="m 140.41561,149.41386 2.19892,-12.43587 q 0.12935,-0.73913 0.12935,-1.34891 0,-3.41848 -3.32609,-3.41848 -1.275,0 -2.69783,0.75761 -1.40435,0.73913 -2.27283,1.73695 l -2.60543,14.7087 h -3.58479 l 4.82283,-27.90218 h 3.49239 l -1.62608,10.2924 q 0.90543,-1.09022 2.58695,-1.81087 1.7,-0.73914 3.36305,-0.73914 2.62391,0 4.06522,1.49674 1.45978,1.49674 1.45978,4.21305 0,0.94239 -0.18478,2.01413 l -2.19892,12.43587 z" />
      </g>
    </g>
  </g>
</svg>
