<?xml version="1.0" encoding="UTF-8" standalone="no"?>
<!-- Created with Inkscape (http://www.inkscape.org/) -->

<svg
   xmlns:dc="http://purl.org/dc/elements/1.1/"
   xmlns:cc="http://creativecommons.org/ns#"
   xmlns:rdf="http://www.w3.org/1999/02/22-rdf-syntax-ns#"
   xmlns:svg="http://www.w3.org/2000/svg"
   xmlns="http://www.w3.org/2000/svg"
   xmlns:sodipodi="http://sodipodi.sourceforge.net/DTD/sodipodi-0.dtd"
   xmlns:inkscape="http://www.inkscape.org/namespaces/inkscape"
   width="297mm"
   height="210mm"
   viewBox="0 0 297 210"
   version="1.1"
   id="svg8"
   inkscape:version="0.92.1 r15371"
   sodipodi:docname="logo-katch.svg">
  <defs
     id="defs2">
    <inkscape:perspective
       sodipodi:type="inkscape:persp3d"
       inkscape:vp_x="3.4939738 : 151.06858 : 1"
       inkscape:vp_y="0 : 999.99995 : 0"
       inkscape:vp_z="213.49398 : 151.06858 : 1"
       inkscape:persp3d-origin="108.49398 : 101.56858 : 1"
       id="perspective3727" />
  </defs>
  <sodipodi:namedview
     id="base"
     pagecolor="#ffffff"
     bordercolor="#666666"
     borderopacity="1.0"
     inkscape:pageopacity="0.0"
     inkscape:pageshadow="2"
     inkscape:zoom="1"
     inkscape:cx="517.78571"
     inkscape:cy="379.14286"
     inkscape:document-units="mm"
     inkscape:current-layer="text3682"
     showgrid="false"
     inkscape:window-width="1920"
     inkscape:window-height="1017"
     inkscape:window-x="2552"
     inkscape:window-y="-8"
     inkscape:window-maximized="1" />
  <metadata
     id="metadata5">
    <rdf:RDF>
      <cc:Work
         rdf:about="">
        <dc:format>image/svg+xml</dc:format>
        <dc:type
           rdf:resource="http://purl.org/dc/dcmitype/StillImage" />
        <dc:title />
      </cc:Work>
    </rdf:RDF>
  </metadata>
  <g
     inkscape:label="Livello 1"
     inkscape:groupmode="layer"
     id="layer1"
     transform="translate(0,-87)">
    <g
       aria-label="katch"
       style="font-style:normal;font-weight:normal;font-size:37.8434906px;line-height:1.25;font-family:sans-serif;letter-spacing:0px;word-spacing:0px;fill:#000000;fill-opacity:1;stroke:none;stroke-width:0.94608724"
       id="text3682">
      <g
         aria-label="katch"
         style="font-style:normal;font-weight:normal;font-size:47.14848709px;line-height:1.25;font-family:sans-serif;letter-spacing:0px;word-spacing:0px;fill:#660080;fill-opacity:1;stroke:none;stroke-width:1.11516452"
         id="text25"
         transform="translate(2.388936,-7.95129)"
         inkscape:export-xdpi="96"
         inkscape:export-ydpi="96">
        <path
           d="m 109.02289,218.38635 -1.27301,4.5734 H 94.359706 v -4.29051 H 81.535318 v -37.15301 l 1.273009,-4.5734 h 13.39017 v 4.29051 h 12.824393 v 9.75974 l -0.70723,2.31027 h 0.70723 z m -2.02739,-2.02739 v -21.02822 h -5.13918 l 5.13918,-5.18634 v -6.88367 h -9.3354 v 5.75211 l -3.488988,3.48899 v -13.53162 h -9.3354 v 33.09824 h 9.3354 V 198.77258 H 97.6601 v 17.58638 z"
           style="font-style:normal;font-variant:normal;font-weight:normal;font-stretch:normal;font-family:'Dimitri Swank';-inkscape-font-specification:'Dimitri Swank';fill:#660080;stroke-width:1.11516452"
           id="path36"
           inkscape:connector-curvature="0" />
        <path
           d="m 134.48602,214.09584 -1.27301,4.5734 H 106.9513 v -37.15301 l 1.27301,-4.5734 h 18.29361 l 7.9681,12.30575 z m -2.02739,-2.02739 v -22.20694 l -7.07227,-10.8913 h -15.13467 v 33.09824 h 9.3354 v -14.0031 h 3.53614 v 14.0031 z m -9.3354,-19.75522 h -3.53614 v -6.78938 z"
           style="font-style:normal;font-variant:normal;font-weight:normal;font-stretch:normal;font-family:'Dimitri Swank';-inkscape-font-specification:'Dimitri Swank';fill:#660080;stroke-width:1.11516452"
           id="path38"
           inkscape:connector-curvature="0" />
        <path
           d="m 159.85485,214.09584 -1.27301,4.5734 h -18.19932 l -8.01524,-12.30576 v -24.84725 l 1.27301,-4.5734 h 13.39017 v 4.05477 h 12.82439 z m -1.98024,-21.78261 h -9.38255 v 11.69283 h -3.48899 V 188.7771 h 12.82439 v -5.75212 h -12.82439 v -4.05477 h -9.3354 v 22.20694 l 7.07228,10.8913 h 15.08751 z"
           style="font-style:normal;font-variant:normal;font-weight:normal;font-stretch:normal;font-family:'Dimitri Swank';-inkscape-font-specification:'Dimitri Swank';fill:#660080;stroke-width:1.11516452"
           id="path40"
           inkscape:connector-curvature="0" />
        <path
           d="m 185.31797,176.94283 v 28.99632 l -1.27301,4.5734 -8.25098,8.15669 h -18.01072 l 0.0471,-27.48757 9.2411,-14.23884 z m -2.02738,2.02738 h -15.13467 l -7.07227,10.8913 v 22.20694 h 15.13467 l 7.07227,-6.97798 -0.0472,-10.41981 h -9.3354 v 10.23122 H 170.419 V 187.0326 h 3.48899 v 5.37493 h 9.38255 z"
           style="font-style:normal;font-variant:normal;font-weight:normal;font-stretch:normal;font-family:'Dimitri Swank';-inkscape-font-specification:'Dimitri Swank';fill:#660080;stroke-width:1.11516452"
           id="path42"
           inkscape:connector-curvature="0" />
        <path
           d="m 210.68681,214.09584 -1.27301,4.5734 h -11.55138 l -1.27301,4.29051 h -13.39017 v -41.44352 l 1.27301,-4.5734 h 26.21456 z m -2.02738,-2.02739 v -33.09824 h -9.3354 v 13.34302 h -3.48899 v -13.34302 h -9.3354 v 37.38875 h 9.3354 v -18.29361 h 3.48899 v 14.0031 z"
           style="font-style:normal;font-variant:normal;font-weight:normal;font-stretch:normal;font-family:'Dimitri Swank';-inkscape-font-specification:'Dimitri Swank';fill:#660080;stroke-width:1.11516452"
           id="path44"
           inkscape:connector-curvature="0" />
      </g>
    </g>
  </g>
</svg>
